<svg id="visual" viewBox="0 0 900 600" width="900" height="600" xmlns="http://www.w3.org/2000/svg" xmlns:xlink="http://www.w3.org/1999/xlink" version="1.1"><rect x="0" y="0" width="900" height="600" fill="#02192a"></rect><defs><linearGradient id="grad1_0" x1="33.3%" y1="0%" x2="100%" y2="100%"><stop offset="20%" stop-color="#02192a" stop-opacity="1"></stop><stop offset="80%" stop-color="#02192a" stop-opacity="1"></stop></linearGradient></defs><defs><linearGradient id="grad2_0" x1="0%" y1="0%" x2="66.7%" y2="100%"><stop offset="20%" stop-color="#02192a" stop-opacity="1"></stop><stop offset="80%" stop-color="#02192a" stop-opacity="1"></stop></linearGradient></defs><g transform="translate(900, 0)"><path d="M0 324.5C-33.5 300.9 -67.1 277.4 -110.2 266.1C-153.4 254.8 -206.1 255.8 -229.5 229.5C-252.8 203.1 -246.8 149.6 -257.8 106.8C-268.7 64 -296.6 32 -324.5 0L0 0Z" fill="#FBAE3C"></path></g><g transform="translate(0, 600)"><path d="M0 -324.5C31.8 -296.5 63.5 -268.5 106.8 -257.8C150 -247 204.8 -253.5 229.5 -229.5C254.1 -205.4 248.8 -150.9 259.6 -107.5C270.4 -64.2 297.5 -32.1 324.5 0L0 0Z" fill="#FBAE3C"></path></g></svg>