<svg id="visual" viewBox="0 0 960 540" width="960" height="540" xmlns="http://www.w3.org/2000/svg" xmlns:xlink="http://www.w3.org/1999/xlink" version="1.1"><rect x="0" y="0" width="960" height="540" fill="#FFFFFF"></rect><defs><linearGradient id="grad1_0" x1="43.8%" y1="0%" x2="100%" y2="100%"><stop offset="14.444444444444446%" stop-color="#ffffff" stop-opacity="1"></stop><stop offset="85.55555555555554%" stop-color="#ffffff" stop-opacity="1"></stop></linearGradient></defs><defs><linearGradient id="grad2_0" x1="0%" y1="0%" x2="56.3%" y2="100%"><stop offset="14.444444444444446%" stop-color="#ffffff" stop-opacity="1"></stop><stop offset="85.55555555555554%" stop-color="#ffffff" stop-opacity="1"></stop></linearGradient></defs><g transform="translate(960, 0)"><path d="M0 216C-22.4 194.7 -44.8 173.4 -66.6 160.8C-88.3 148.1 -109.4 144.2 -133.6 133.6C-157.9 123.1 -185.3 106 -199.6 82.7C-213.8 59.3 -214.9 29.6 -216 0L0 0Z" fill="#FBAE3C"></path></g><g transform="translate(0, 540)"><path d="M0 -216C27.8 -210.2 55.6 -204.4 80 -193.1C104.4 -181.8 125.5 -165 146.4 -146.4C167.3 -127.8 188 -107.4 199.6 -82.7C211.1 -58 213.6 -29 216 0L0 0Z" fill="#FBAE3C"></path></g></svg>