<svg id="visual" viewBox="0 0 960 540" width="960" height="540" xmlns="http://www.w3.org/2000/svg" xmlns:xlink="http://www.w3.org/1999/xlink" version="1.1"><rect x="0" y="0" width="960" height="540" fill="#fafafa"></rect><defs><linearGradient id="grad1_0" x1="43.8%" y1="0%" x2="100%" y2="100%"><stop offset="14.444444444444446%" stop-color="#fafafa" stop-opacity="1"></stop><stop offset="85.55555555555554%" stop-color="#fafafa" stop-opacity="1"></stop></linearGradient></defs><defs><linearGradient id="grad2_0" x1="0%" y1="0%" x2="56.3%" y2="100%"><stop offset="14.444444444444446%" stop-color="#fafafa" stop-opacity="1"></stop><stop offset="85.55555555555554%" stop-color="#fafafa" stop-opacity="1"></stop></linearGradient></defs><g transform="translate(960, 0)"><path d="M0 324C-45.9 323 -91.7 322.1 -124 299.3C-156.2 276.6 -174.8 232.1 -199.4 199.4C-224 166.7 -254.5 145.7 -276.2 114.4C-298 83.1 -311 41.6 -324 0L0 0Z" fill="#FBAE3C"></path></g><g transform="translate(0, 540)"><path d="M0 -324C40.9 -318.8 81.8 -313.6 124 -299.3C166.1 -285.1 209.6 -261.8 225.6 -225.6C241.6 -189.3 230.2 -140 242.1 -100.3C253.9 -60.5 288.9 -30.3 324 0L0 0Z" fill="#FBAE3C"></path></g></svg>