<svg id="visual" viewBox="0 0 900 600" width="900" height="600" xmlns="http://www.w3.org/2000/svg" xmlns:xlink="http://www.w3.org/1999/xlink" version="1.1"><rect x="0" y="0" width="900" height="600" fill="#001220"></rect><path d="M0 491L10 490.2C20 489.3 40 487.7 60 478.2C80 468.7 100 451.3 120 449.5C140 447.7 160 461.3 180 456.3C200 451.3 220 427.7 240 427.7C260 427.7 280 451.3 300 460.7C320 470 340 465 360 463.3C380 461.7 400 463.3 420 459.3C440 455.3 460 445.7 480 446.8C500 448 520 460 540 467.8C560 475.7 580 479.3 600 477.7C620 476 640 469 660 463.2C680 457.3 700 452.7 720 444C740 435.3 760 422.7 780 415.5C800 408.3 820 406.7 840 407.5C860 408.3 880 411.7 890 413.3L900 415L900 601L890 601C880 601 860 601 840 601C820 601 800 601 780 601C760 601 740 601 720 601C700 601 680 601 660 601C640 601 620 601 600 601C580 601 560 601 540 601C520 601 500 601 480 601C460 601 440 601 420 601C400 601 380 601 360 601C340 601 320 601 300 601C280 601 260 601 240 601C220 601 200 601 180 601C160 601 140 601 120 601C100 601 80 601 60 601C40 601 20 601 10 601L0 601Z" fill="#fa7268"></path><path d="M0 461L10 463.5C20 466 40 471 60 473C80 475 100 474 120 474.2C140 474.3 160 475.7 180 478.8C200 482 220 487 240 490.7C260 494.3 280 496.7 300 503C320 509.3 340 519.7 360 522.2C380 524.7 400 519.3 420 516.8C440 514.3 460 514.7 480 511.8C500 509 520 503 540 498.8C560 494.7 580 492.3 600 488C620 483.7 640 477.3 660 481.2C680 485 700 499 720 500.5C740 502 760 491 780 483.2C800 475.3 820 470.7 840 470.7C860 470.7 880 475.3 890 477.7L900 480L900 601L890 601C880 601 860 601 840 601C820 601 800 601 780 601C760 601 740 601 720 601C700 601 680 601 660 601C640 601 620 601 600 601C580 601 560 601 540 601C520 601 500 601 480 601C460 601 440 601 420 601C400 601 380 601 360 601C340 601 320 601 300 601C280 601 260 601 240 601C220 601 200 601 180 601C160 601 140 601 120 601C100 601 80 601 60 601C40 601 20 601 10 601L0 601Z" fill="#e34c67"></path><path d="M0 559L10 551.5C20 544 40 529 60 523.3C80 517.7 100 521.3 120 524.7C140 528 160 531 180 532.8C200 534.7 220 535.3 240 533C260 530.7 280 525.3 300 530.7C320 536 340 552 360 551.3C380 550.7 400 533.3 420 531.5C440 529.7 460 543.3 480 543.5C500 543.7 520 530.3 540 527.3C560 524.3 580 531.7 600 536.2C620 540.7 640 542.3 660 541.5C680 540.7 700 537.3 720 541.3C740 545.3 760 556.7 780 559.5C800 562.3 820 556.7 840 550C860 543.3 880 535.7 890 531.8L900 528L900 601L890 601C880 601 860 601 840 601C820 601 800 601 780 601C760 601 740 601 720 601C700 601 680 601 660 601C640 601 620 601 600 601C580 601 560 601 540 601C520 601 500 601 480 601C460 601 440 601 420 601C400 601 380 601 360 601C340 601 320 601 300 601C280 601 260 601 240 601C220 601 200 601 180 601C160 601 140 601 120 601C100 601 80 601 60 601C40 601 20 601 10 601L0 601Z" fill="#c62368"></path></svg>