<svg id="visual" viewBox="0 0 900 600" width="900" height="600" xmlns="http://www.w3.org/2000/svg" xmlns:xlink="http://www.w3.org/1999/xlink" version="1.1"><rect x="0" y="0" width="900" height="600" fill="#001220"></rect><path d="M0 545L10 544.7C20 544.3 40 543.7 60 539C80 534.3 100 525.7 120 524.7C140 523.7 160 530.3 180 527.8C200 525.3 220 513.7 240 513.7C260 513.7 280 525.3 300 530C320 534.7 340 532.3 360 531.5C380 530.7 400 531.3 420 529.2C440 527 460 522 480 522.7C500 523.3 520 529.7 540 533.7C560 537.7 580 539.3 600 538.3C620 537.3 640 533.7 660 530.7C680 527.7 700 525.3 720 521.2C740 517 760 511 780 507.5C800 504 820 503 840 503.3C860 503.7 880 505.3 890 506.2L900 507L900 601L890 601C880 601 860 601 840 601C820 601 800 601 780 601C760 601 740 601 720 601C700 601 680 601 660 601C640 601 620 601 600 601C580 601 560 601 540 601C520 601 500 601 480 601C460 601 440 601 420 601C400 601 380 601 360 601C340 601 320 601 300 601C280 601 260 601 240 601C220 601 200 601 180 601C160 601 140 601 120 601C100 601 80 601 60 601C40 601 20 601 10 601L0 601Z" fill="#fa7268"></path><path d="M0 530L10 531.3C20 532.7 40 535.3 60 536.3C80 537.3 100 536.7 120 536.7C140 536.7 160 537.3 180 538.8C200 540.3 220 542.7 240 544.5C260 546.3 280 547.7 300 550.8C320 554 340 559 360 560.3C380 561.7 400 559.3 420 558.2C440 557 460 557 480 555.5C500 554 520 551 540 548.8C560 546.7 580 545.3 600 543.2C620 541 640 538 660 540C680 542 700 549 720 549.7C740 550.3 760 544.7 780 540.7C800 536.7 820 534.3 840 534.5C860 534.7 880 537.3 890 538.7L900 540L900 601L890 601C880 601 860 601 840 601C820 601 800 601 780 601C760 601 740 601 720 601C700 601 680 601 660 601C640 601 620 601 600 601C580 601 560 601 540 601C520 601 500 601 480 601C460 601 440 601 420 601C400 601 380 601 360 601C340 601 320 601 300 601C280 601 260 601 240 601C220 601 200 601 180 601C160 601 140 601 120 601C100 601 80 601 60 601C40 601 20 601 10 601L0 601Z" fill="#e34c67"></path><path d="M0 579L10 575.3C20 571.7 40 564.3 60 561.5C80 558.7 100 560.3 120 562C140 563.7 160 565.3 180 566.3C200 567.3 220 567.7 240 566.5C260 565.3 280 562.7 300 565.3C320 568 340 576 360 575.7C380 575.3 400 566.7 420 565.7C440 564.7 460 571.3 480 571.3C500 571.3 520 564.7 540 563.2C560 561.7 580 565.3 600 567.5C620 569.7 640 570.3 660 570C680 569.7 700 568.3 720 570.3C740 572.3 760 577.7 780 579C800 580.3 820 577.7 840 574.3C860 571 880 567 890 565L900 563L900 601L890 601C880 601 860 601 840 601C820 601 800 601 780 601C760 601 740 601 720 601C700 601 680 601 660 601C640 601 620 601 600 601C580 601 560 601 540 601C520 601 500 601 480 601C460 601 440 601 420 601C400 601 380 601 360 601C340 601 320 601 300 601C280 601 260 601 240 601C220 601 200 601 180 601C160 601 140 601 120 601C100 601 80 601 60 601C40 601 20 601 10 601L0 601Z" fill="#c62368"></path></svg>