<svg id="visual" viewBox="0 0 900 600" width="900" height="600" xmlns="http://www.w3.org/2000/svg" xmlns:xlink="http://www.w3.org/1999/xlink" version="1.1"><g stroke-width="1" stroke-linejoin="bevel"><path d="M389 283L292 280L401 360Z" fill="#297ea6" stroke="#297ea6"></path><path d="M292 280L301 433L401 360Z" fill="#1d4e6b" stroke="#1d4e6b"></path><path d="M292 280L235 287L301 433Z" fill="#1d4e6b" stroke="#1d4e6b"></path><path d="M524 224L421 201L389 283Z" fill="#1d4e6b" stroke="#1d4e6b"></path><path d="M389 283L298 177L292 280Z" fill="#297ea6" stroke="#297ea6"></path><path d="M292 280L226 199L235 287Z" fill="#205a7a" stroke="#205a7a"></path><path d="M421 201L298 177L389 283Z" fill="#081a28" stroke="#081a28"></path><path d="M235 287L187 379L301 433Z" fill="#205a7a" stroke="#205a7a"></path><path d="M298 177L226 199L292 280Z" fill="#112e42" stroke="#112e42"></path><path d="M235 287L77 336L187 379Z" fill="#081a28" stroke="#081a28"></path><path d="M177 511L339 520L301 433Z" fill="#297ea6" stroke="#297ea6"></path><path d="M301 433L339 520L401 360Z" fill="#15384f" stroke="#15384f"></path><path d="M506 436L531 320L401 360Z" fill="#246688" stroke="#246688"></path><path d="M401 360L531 320L389 283Z" fill="#205a7a" stroke="#205a7a"></path><path d="M371 537L506 436L401 360Z" fill="#0c2435" stroke="#0c2435"></path><path d="M339 520L371 537L401 360Z" fill="#246688" stroke="#246688"></path><path d="M531 320L524 224L389 283Z" fill="#246688" stroke="#246688"></path><path d="M422 93L335 111L421 201Z" fill="#297ea6" stroke="#297ea6"></path><path d="M421 201L335 111L298 177Z" fill="#205a7a" stroke="#205a7a"></path><path d="M298 177L167 94L226 199Z" fill="#1d4e6b" stroke="#1d4e6b"></path><path d="M371 537L514 480L506 436Z" fill="#00101c" stroke="#00101c"></path><path d="M506 436L597 376L531 320Z" fill="#112e42" stroke="#112e42"></path><path d="M187 379L177 511L301 433Z" fill="#112e42" stroke="#112e42"></path><path d="M339 520L308 600L371 537Z" fill="#00101c" stroke="#00101c"></path><path d="M524 224L422 93L421 201Z" fill="#297ea6" stroke="#297ea6"></path><path d="M617 461L597 376L506 436Z" fill="#246688" stroke="#246688"></path><path d="M531 320L617 336L524 224Z" fill="#205a7a" stroke="#205a7a"></path><path d="M101 217L77 336L235 287Z" fill="#15384f" stroke="#15384f"></path><path d="M187 379L68 430L177 511Z" fill="#15384f" stroke="#15384f"></path><path d="M167 94L101 217L226 199Z" fill="#205a7a" stroke="#205a7a"></path><path d="M226 199L101 217L235 287Z" fill="#246688" stroke="#246688"></path><path d="M209 600L308 600L339 520Z" fill="#00101c" stroke="#00101c"></path><path d="M371 537L431 600L514 480Z" fill="#081a28" stroke="#081a28"></path><path d="M597 376L617 336L531 320Z" fill="#246688" stroke="#246688"></path><path d="M524 224L516 66L422 93Z" fill="#081a28" stroke="#081a28"></path><path d="M308 600L431 600L371 537Z" fill="#277297" stroke="#277297"></path><path d="M514 480L617 461L506 436Z" fill="#0c2435" stroke="#0c2435"></path><path d="M77 336L68 430L187 379Z" fill="#0c2435" stroke="#0c2435"></path><path d="M284 0L167 94L335 111Z" fill="#15384f" stroke="#15384f"></path><path d="M335 111L167 94L298 177Z" fill="#205a7a" stroke="#205a7a"></path><path d="M70 600L209 600L177 511Z" fill="#15384f" stroke="#15384f"></path><path d="M177 511L209 600L339 520Z" fill="#246688" stroke="#246688"></path><path d="M635 600L617 461L514 480Z" fill="#112e42" stroke="#112e42"></path><path d="M597 376L734 438L617 336Z" fill="#112e42" stroke="#112e42"></path><path d="M592 128L516 66L524 224Z" fill="#277297" stroke="#277297"></path><path d="M422 93L386 0L335 111Z" fill="#00101c" stroke="#00101c"></path><path d="M628 165L592 128L524 224Z" fill="#277297" stroke="#277297"></path><path d="M431 600L520 600L514 480Z" fill="#205a7a" stroke="#205a7a"></path><path d="M68 430L71 524L177 511Z" fill="#205a7a" stroke="#205a7a"></path><path d="M672 199L628 165L524 224Z" fill="#15384f" stroke="#15384f"></path><path d="M672 199L524 224L617 336Z" fill="#297ea6" stroke="#297ea6"></path><path d="M460 0L386 0L422 93Z" fill="#0c2435" stroke="#0c2435"></path><path d="M386 0L284 0L335 111Z" fill="#00101c" stroke="#00101c"></path><path d="M0 222L0 313L101 217Z" fill="#15384f" stroke="#15384f"></path><path d="M101 217L0 313L77 336Z" fill="#246688" stroke="#246688"></path><path d="M77 336L0 396L68 430Z" fill="#19435d" stroke="#19435d"></path><path d="M68 430L0 489L71 524Z" fill="#205a7a" stroke="#205a7a"></path><path d="M0 313L0 396L77 336Z" fill="#1d4e6b" stroke="#1d4e6b"></path><path d="M516 66L460 0L422 93Z" fill="#297ea6" stroke="#297ea6"></path><path d="M624 0L460 0L516 66Z" fill="#00101c" stroke="#00101c"></path><path d="M167 94L63 110L101 217Z" fill="#00101c" stroke="#00101c"></path><path d="M62 0L63 110L167 94Z" fill="#19435d" stroke="#19435d"></path><path d="M63 110L0 222L101 217Z" fill="#00101c" stroke="#00101c"></path><path d="M730 95L624 0L592 128Z" fill="#246688" stroke="#246688"></path><path d="M592 128L624 0L516 66Z" fill="#277297" stroke="#277297"></path><path d="M722 294L672 199L617 336Z" fill="#15384f" stroke="#15384f"></path><path d="M284 0L198 0L167 94Z" fill="#297ea6" stroke="#297ea6"></path><path d="M0 396L0 489L68 430Z" fill="#1d4e6b" stroke="#1d4e6b"></path><path d="M71 524L70 600L177 511Z" fill="#00101c" stroke="#00101c"></path><path d="M0 600L70 600L71 524Z" fill="#205a7a" stroke="#205a7a"></path><path d="M734 438L722 294L617 336Z" fill="#00101c" stroke="#00101c"></path><path d="M520 600L635 600L514 480Z" fill="#1d4e6b" stroke="#1d4e6b"></path><path d="M617 461L734 438L597 376Z" fill="#205a7a" stroke="#205a7a"></path><path d="M723 502L734 438L617 461Z" fill="#205a7a" stroke="#205a7a"></path><path d="M62 0L0 94L63 110Z" fill="#205a7a" stroke="#205a7a"></path><path d="M63 110L0 94L0 222Z" fill="#0c2435" stroke="#0c2435"></path><path d="M635 600L723 502L617 461Z" fill="#277297" stroke="#277297"></path><path d="M198 0L62 0L167 94Z" fill="#297ea6" stroke="#297ea6"></path><path d="M0 489L0 600L71 524Z" fill="#15384f" stroke="#15384f"></path><path d="M730 95L628 165L672 199Z" fill="#205a7a" stroke="#205a7a"></path><path d="M730 95L592 128L628 165Z" fill="#277297" stroke="#277297"></path><path d="M734 438L783 296L722 294Z" fill="#00101c" stroke="#00101c"></path><path d="M722 294L788 239L672 199Z" fill="#205a7a" stroke="#205a7a"></path><path d="M839 368L783 296L734 438Z" fill="#081a28" stroke="#081a28"></path><path d="M784 137L730 95L672 199Z" fill="#15384f" stroke="#15384f"></path><path d="M783 296L788 239L722 294Z" fill="#112e42" stroke="#112e42"></path><path d="M62 0L0 0L0 94Z" fill="#15384f" stroke="#15384f"></path><path d="M635 600L728 600L723 502Z" fill="#081a28" stroke="#081a28"></path><path d="M723 502L809 463L734 438Z" fill="#081a28" stroke="#081a28"></path><path d="M788 239L784 137L672 199Z" fill="#205a7a" stroke="#205a7a"></path><path d="M730 95L699 0L624 0Z" fill="#205a7a" stroke="#205a7a"></path><path d="M783 296L900 260L788 239Z" fill="#0c2435" stroke="#0c2435"></path><path d="M788 239L900 161L784 137Z" fill="#15384f" stroke="#15384f"></path><path d="M762 600L809 463L723 502Z" fill="#1d4e6b" stroke="#1d4e6b"></path><path d="M818 0L699 0L730 95Z" fill="#19435d" stroke="#19435d"></path><path d="M809 463L839 368L734 438Z" fill="#297ea6" stroke="#297ea6"></path><path d="M728 600L762 600L723 502Z" fill="#0c2435" stroke="#0c2435"></path><path d="M900 416L839 368L809 463Z" fill="#0c2435" stroke="#0c2435"></path><path d="M900 416L900 260L839 368Z" fill="#0c2435" stroke="#0c2435"></path><path d="M839 368L900 260L783 296Z" fill="#277297" stroke="#277297"></path><path d="M784 137L818 0L730 95Z" fill="#277297" stroke="#277297"></path><path d="M900 486L900 416L809 463Z" fill="#297ea6" stroke="#297ea6"></path><path d="M900 128L818 0L784 137Z" fill="#00101c" stroke="#00101c"></path><path d="M900 600L900 486L809 463Z" fill="#112e42" stroke="#112e42"></path><path d="M900 260L900 161L788 239Z" fill="#19435d" stroke="#19435d"></path><path d="M900 161L900 128L784 137Z" fill="#081a28" stroke="#081a28"></path><path d="M762 600L900 600L809 463Z" fill="#277297" stroke="#277297"></path><path d="M900 128L900 0L818 0Z" fill="#277297" stroke="#277297"></path></g></svg>