<svg id="visual" viewBox="0 0 960 540" width="960" height="540" xmlns="http://www.w3.org/2000/svg" xmlns:xlink="http://www.w3.org/1999/xlink" version="1.1"><rect x="0" y="0" width="960" height="540" fill="#cacdcf"></rect><path d="M0 369L22.8 373.8C45.7 378.7 91.3 388.3 137 393.3C182.7 398.3 228.3 398.7 274 401.8C319.7 405 365.3 411 411.2 406.5C457 402 503 387 548.8 386.2C594.7 385.3 640.3 398.7 686 402.5C731.7 406.3 777.3 400.7 823 401.7C868.7 402.7 914.3 410.3 937.2 414.2L960 418L960 541L937.2 541C914.3 541 868.7 541 823 541C777.3 541 731.7 541 686 541C640.3 541 594.7 541 548.8 541C503 541 457 541 411.2 541C365.3 541 319.7 541 274 541C228.3 541 182.7 541 137 541C91.3 541 45.7 541 22.8 541L0 541Z" fill="#fa7268"></path><path d="M0 395L22.8 399.7C45.7 404.3 91.3 413.7 137 413.7C182.7 413.7 228.3 404.3 274 408C319.7 411.7 365.3 428.3 411.2 435.8C457 443.3 503 441.7 548.8 434.3C594.7 427 640.3 414 686 406C731.7 398 777.3 395 823 397.2C868.7 399.3 914.3 406.7 937.2 410.3L960 414L960 541L937.2 541C914.3 541 868.7 541 823 541C777.3 541 731.7 541 686 541C640.3 541 594.7 541 548.8 541C503 541 457 541 411.2 541C365.3 541 319.7 541 274 541C228.3 541 182.7 541 137 541C91.3 541 45.7 541 22.8 541L0 541Z" fill="#ef5f67"></path><path d="M0 428L22.8 430.7C45.7 433.3 91.3 438.7 137 440C182.7 441.3 228.3 438.7 274 438.2C319.7 437.7 365.3 439.3 411.2 444C457 448.7 503 456.3 548.8 455C594.7 453.7 640.3 443.3 686 441.3C731.7 439.3 777.3 445.7 823 452.3C868.7 459 914.3 466 937.2 469.5L960 473L960 541L937.2 541C914.3 541 868.7 541 823 541C777.3 541 731.7 541 686 541C640.3 541 594.7 541 548.8 541C503 541 457 541 411.2 541C365.3 541 319.7 541 274 541C228.3 541 182.7 541 137 541C91.3 541 45.7 541 22.8 541L0 541Z" fill="#e34c67"></path><path d="M0 454L22.8 458.8C45.7 463.7 91.3 473.3 137 478.3C182.7 483.3 228.3 483.7 274 482.8C319.7 482 365.3 480 411.2 479.7C457 479.3 503 480.7 548.8 477.7C594.7 474.7 640.3 467.3 686 470C731.7 472.7 777.3 485.3 823 485.7C868.7 486 914.3 474 937.2 468L960 462L960 541L937.2 541C914.3 541 868.7 541 823 541C777.3 541 731.7 541 686 541C640.3 541 594.7 541 548.8 541C503 541 457 541 411.2 541C365.3 541 319.7 541 274 541C228.3 541 182.7 541 137 541C91.3 541 45.7 541 22.8 541L0 541Z" fill="#d53867"></path><path d="M0 520L22.8 519.5C45.7 519 91.3 518 137 515.2C182.7 512.3 228.3 507.7 274 503.2C319.7 498.7 365.3 494.3 411.2 491.7C457 489 503 488 548.8 488C594.7 488 640.3 489 686 489.8C731.7 490.7 777.3 491.3 823 494.7C868.7 498 914.3 504 937.2 507L960 510L960 541L937.2 541C914.3 541 868.7 541 823 541C777.3 541 731.7 541 686 541C640.3 541 594.7 541 548.8 541C503 541 457 541 411.2 541C365.3 541 319.7 541 274 541C228.3 541 182.7 541 137 541C91.3 541 45.7 541 22.8 541L0 541Z" fill="#c62368"></path></svg>